<?xml version="1.0" encoding="UTF-8"?> <svg xmlns="http://www.w3.org/2000/svg" xmlns:xlink="http://www.w3.org/1999/xlink" width="170" zoomAndPan="magnify" viewBox="0 0 127.5 44.999999" height="60" preserveAspectRatio="xMidYMid meet" version="1.0"><defs><clipPath id="4d07d3df10"><path d="M 50 0.0859375 L 78 0.0859375 L 78 44.910156 L 50 44.910156 Z M 50 0.0859375 " clip-rule="nonzero"></path></clipPath><clipPath id="14e2234e94"><path d="M 60.617188 13.285156 L 59.546875 13.910156 L 59.546875 12.664062 Z M 59.546875 11.15625 L 59.546875 12.277344 L 60.515625 11.710938 L 59.546875 11.148438 Z M 59.546875 14.179688 L 59.546875 15.546875 L 60.722656 14.859375 L 59.546875 14.171875 Z M 59.546875 15.6875 L 59.546875 17.175781 L 60.828125 16.433594 Z M 76.90625 21.144531 L 76.90625 21.535156 L 77.242188 21.339844 Z M 75.582031 15.324219 L 75.582031 15.621094 L 75.839844 15.472656 Z M 57.984375 1.660156 L 57.984375 2.070312 L 58.332031 1.863281 Z M 56.441406 3.714844 L 56.441406 4.3125 L 56.949219 4.019531 L 56.441406 3.722656 Z M 76.898438 19.773438 L 76.898438 20.144531 L 77.210938 19.964844 L 76.898438 19.78125 Z M 57.984375 5.953125 L 57.984375 6.738281 L 58.660156 6.347656 Z M 57.984375 10.441406 L 57.984375 11.597656 L 58.980469 11.015625 L 57.984375 10.433594 Z M 57.984375 11.933594 L 57.984375 13.21875 L 59.085938 12.582031 L 57.984375 11.941406 Z M 57.984375 13.433594 L 57.984375 14.84375 L 59.195312 14.136719 Z M 56.441406 1.167969 L 56.441406 1.554688 L 56.769531 1.355469 L 56.441406 1.160156 Z M 56.441406 2.234375 L 56.441406 2.683594 L 56.828125 2.453125 L 56.441406 2.226562 Z M 57.984375 7.453125 L 57.984375 8.363281 L 58.765625 7.902344 Z M 57.984375 8.953125 L 57.984375 9.984375 L 58.875 9.46875 Z M 75.582031 16.621094 L 75.582031 16.941406 L 75.855469 16.785156 L 75.582031 16.628906 Z M 57.984375 4.46875 L 57.984375 5.125 L 58.554688 4.796875 Z M 57.984375 2.96875 L 57.984375 3.503906 L 58.445312 3.234375 Z M 76.898438 18.414062 L 76.898438 18.683594 L 77.128906 18.546875 L 76.898438 18.40625 Z M 72.886719 14.046875 L 72.886719 14.316406 L 73.117188 14.1875 L 72.886719 14.054688 Z M 72.886719 15.332031 L 72.886719 15.628906 L 73.140625 15.480469 Z M 72.886719 11.476562 L 72.886719 11.695312 L 73.078125 11.589844 L 72.886719 11.484375 Z M 72.886719 16.621094 L 72.886719 16.941406 L 73.160156 16.785156 L 72.886719 16.628906 Z M 71.539062 11.476562 L 71.539062 11.753906 L 71.777344 11.613281 Z M 72.886719 19.191406 L 72.886719 19.554688 L 73.199219 19.375 Z M 72.886719 17.90625 L 72.886719 18.25 L 73.183594 18.078125 Z M 71.539062 9.902344 L 71.539062 10.15625 L 71.753906 10.03125 L 71.539062 9.910156 Z M 72.886719 20.480469 L 72.886719 20.863281 L 73.226562 20.667969 L 72.886719 20.472656 Z M 74.210938 21.152344 L 74.210938 21.542969 L 74.546875 21.347656 Z M 75.574219 19.191406 L 75.574219 19.554688 L 75.886719 19.375 Z M 74.210938 14.308594 L 74.210938 14.578125 L 74.441406 14.449219 L 74.210938 14.316406 Z M 75.574219 20.480469 L 75.574219 20.863281 L 75.914062 20.667969 L 75.574219 20.472656 Z M 74.210938 12.941406 L 74.210938 13.1875 L 74.417969 13.0625 Z M 75.574219 17.90625 L 75.574219 18.25 L 75.871094 18.078125 Z M 74.210938 18.414062 L 74.210938 18.757812 L 74.507812 18.585938 Z M 74.210938 19.78125 L 74.210938 20.152344 L 74.523438 19.972656 L 74.210938 19.789062 Z M 74.210938 17.046875 L 74.210938 17.367188 L 74.480469 17.210938 L 74.210938 17.054688 Z M 51.738281 44.027344 L 52.199219 43.757812 L 51.738281 43.484375 Z M 74.210938 15.679688 L 74.210938 15.972656 L 74.457031 15.824219 Z M 72.886719 12.769531 L 72.886719 13.015625 L 73.101562 12.890625 Z M 50.292969 2.167969 L 50.292969 2.722656 L 50.769531 2.445312 Z M 50.292969 6.589844 L 50.292969 7.65625 L 51.203125 7.125 Z M 50.292969 0.78125 L 50.292969 1.25 L 50.695312 1.011719 L 50.292969 0.773438 Z M 50.292969 5.117188 L 50.292969 6.011719 L 51.058594 5.558594 L 50.292969 5.109375 Z M 50.292969 3.640625 L 50.292969 4.371094 L 50.917969 4.011719 L 50.292969 3.648438 Z M 51.730469 8.804688 L 51.730469 10.171875 L 52.898438 9.492188 L 51.730469 8.8125 Z M 51.730469 4.386719 L 51.730469 5.257812 L 52.480469 4.820312 Z M 51.730469 7.328125 L 51.730469 8.535156 L 52.757812 7.933594 L 51.730469 7.335938 Z M 51.730469 2.914062 L 51.730469 3.617188 L 52.332031 3.265625 Z M 51.730469 5.863281 L 51.730469 6.894531 L 52.617188 6.378906 Z M 50.292969 43.304688 L 50.769531 43.027344 L 50.292969 42.75 Z M 50.292969 37.398438 L 51.351562 36.785156 L 50.292969 36.160156 Z M 50.292969 38.871094 L 51.203125 38.339844 L 50.292969 37.808594 Z M 50.292969 35.921875 L 51.5 35.21875 L 50.292969 34.515625 Z M 50.292969 40.347656 L 51.058594 39.90625 L 50.292969 39.453125 Z M 50.292969 9.550781 L 50.292969 10.957031 L 51.5 10.253906 Z M 50.292969 8.074219 L 50.292969 9.3125 L 51.351562 8.6875 L 50.292969 8.066406 Z M 50.292969 41.824219 L 50.917969 41.460938 L 50.292969 41.101562 Z M 50.292969 44.511719 L 50.695312 44.273438 L 50.292969 44.035156 Z M 56.433594 5.230469 L 56.433594 5.96875 L 57.066406 5.601562 Z M 51.730469 1.4375 L 51.730469 1.980469 L 52.191406 1.707031 Z M 54.863281 7.378906 L 54.863281 8.425781 L 55.757812 7.902344 Z M 56.433594 12.671875 L 56.433594 14.105469 L 57.664062 13.382812 L 56.433594 12.664062 Z M 54.863281 2.921875 L 54.863281 3.535156 L 55.386719 3.234375 L 54.863281 2.929688 Z M 54.863281 5.894531 L 54.863281 6.796875 L 55.636719 6.347656 Z M 54.863281 4.402344 L 54.863281 5.15625 L 55.511719 4.78125 Z M 54.863281 1.085938 L 54.863281 1.554688 L 55.265625 1.316406 L 54.863281 1.078125 Z M 56.433594 6.714844 L 56.433594 7.589844 L 57.179688 7.15625 L 56.433594 6.722656 Z M 56.433594 8.207031 L 56.433594 9.222656 L 57.304688 8.714844 Z M 56.433594 9.695312 L 56.433594 10.851562 L 57.417969 10.269531 Z M 56.433594 11.1875 L 56.433594 12.484375 L 57.542969 11.835938 Z M 54.863281 8.878906 L 54.863281 10.066406 L 55.882812 9.46875 L 54.863281 8.871094 Z M 53.292969 5.132812 L 53.292969 6.027344 L 54.058594 5.574219 L 53.292969 5.125 Z M 53.292969 3.660156 L 53.292969 4.386719 L 53.917969 4.027344 L 53.292969 3.667969 Z M 53.292969 9.566406 L 53.292969 10.976562 L 54.5 10.269531 Z M 53.292969 8.089844 L 53.292969 9.328125 L 54.351562 8.707031 L 53.292969 8.082031 Z M 53.292969 6.617188 L 53.292969 7.679688 L 54.203125 7.148438 Z M 54.863281 11.859375 L 54.863281 13.335938 L 56.128906 12.597656 Z M 54.863281 10.378906 L 54.863281 11.710938 L 56.003906 11.046875 L 54.863281 10.386719 Z M 53.292969 2.191406 L 53.292969 2.75 L 53.769531 2.46875 Z M 53.292969 0.773438 L 53.292969 1.160156 L 53.628906 0.964844 L 53.292969 0.765625 Z M 67.355469 7.960938 L 67.355469 8.394531 L 67.726562 8.171875 Z M 64.234375 12.269531 L 64.234375 13.144531 L 64.980469 12.710938 L 64.234375 12.277344 Z M 64.234375 15.261719 L 64.234375 16.300781 L 65.128906 15.777344 L 64.234375 15.25 Z M 64.234375 13.761719 L 64.234375 14.71875 L 65.054688 14.234375 Z M 64.234375 4.78125 L 64.234375 5.230469 L 64.617188 5.011719 L 64.234375 4.789062 Z M 64.234375 18.25 L 64.234375 19.464844 L 65.277344 18.855469 Z M 64.234375 9.269531 L 64.234375 9.976562 L 64.832031 9.625 Z M 64.234375 7.773438 L 64.234375 8.386719 L 64.765625 8.074219 L 64.234375 7.761719 Z M 64.234375 6.273438 L 64.234375 6.804688 L 64.691406 6.542969 Z M 64.234375 10.761719 L 64.234375 11.546875 L 64.90625 11.15625 Z M 64.234375 19.742188 L 64.234375 21.042969 L 65.351562 20.398438 L 64.234375 19.75 Z M 64.234375 16.75 L 64.234375 17.882812 L 65.203125 17.316406 Z M 62.695312 11.222656 L 62.695312 12.121094 L 63.46875 11.671875 Z M 62.695312 12.753906 L 62.695312 13.753906 L 63.550781 13.253906 Z M 68.902344 20.714844 L 68.902344 21.609375 L 69.664062 21.167969 L 68.902344 20.726562 Z M 62.695312 14.285156 L 62.695312 15.382812 L 63.632812 14.835938 Z M 62.695312 15.816406 L 62.695312 17.003906 L 63.714844 16.40625 L 62.695312 15.808594 Z M 62.695312 5.085938 L 62.695312 5.59375 L 63.132812 5.339844 Z M 62.695312 6.617188 L 62.695312 7.222656 L 63.222656 6.917969 Z M 62.695312 9.679688 L 62.695312 10.484375 L 63.386719 10.082031 Z M 62.695312 3.542969 L 62.695312 3.953125 L 63.050781 3.75 Z M 62.695312 8.148438 L 62.695312 8.851562 L 63.304688 8.5 Z M 65.769531 5.304688 L 65.769531 5.714844 L 66.125 5.511719 Z M 67.347656 16.921875 L 67.347656 17.710938 L 68.023438 17.316406 Z M 62.6875 17.347656 L 62.6875 18.636719 L 63.796875 17.988281 L 62.6875 17.339844 Z M 67.347656 13.933594 L 67.347656 14.605469 L 67.921875 14.269531 Z M 67.347656 18.421875 L 67.347656 19.273438 L 68.078125 18.847656 Z M 67.347656 19.921875 L 67.347656 20.832031 L 68.128906 20.371094 Z M 67.347656 15.433594 L 67.347656 16.160156 L 67.972656 15.792969 L 67.347656 15.425781 Z M 67.347656 9.449219 L 67.347656 9.941406 L 67.765625 9.695312 Z M 67.347656 6.460938 L 67.347656 6.835938 L 67.667969 6.648438 Z M 67.347656 10.949219 L 67.347656 11.5 L 67.816406 11.222656 L 67.347656 10.941406 Z M 67.347656 12.449219 L 67.347656 13.0625 L 67.875 12.753906 Z M 65.769531 6.84375 L 65.769531 7.335938 L 66.1875 7.089844 Z M 65.769531 15.996094 L 65.769531 16.957031 L 66.589844 16.480469 L 65.769531 16.003906 Z M 65.769531 17.519531 L 65.769531 18.554688 L 66.65625 18.039062 Z M 65.769531 19.046875 L 65.769531 20.160156 L 66.722656 19.601562 Z M 65.769531 20.570312 L 65.769531 21.757812 L 66.789062 21.167969 Z M 65.769531 14.464844 L 65.769531 15.34375 L 66.527344 14.898438 Z M 65.769531 12.941406 L 65.769531 13.734375 L 66.453125 13.335938 L 65.769531 12.933594 Z M 65.769531 8.363281 L 65.769531 8.925781 L 66.253906 8.648438 L 65.769531 8.371094 Z M 65.769531 9.886719 L 65.769531 10.523438 L 66.320312 10.203125 Z M 65.769531 11.410156 L 65.769531 12.128906 L 66.386719 11.769531 Z M 71.523438 13.0625 L 71.523438 13.375 L 71.785156 13.21875 Z M 70.28125 20.160156 L 70.28125 20.601562 L 70.667969 20.378906 Z M 70.28125 18.683594 L 70.28125 19.101562 L 70.644531 18.890625 L 70.28125 18.675781 Z M 68.894531 6.878906 L 68.894531 7.246094 L 69.207031 7.066406 L 68.894531 6.886719 Z M 70.28125 15.726562 L 70.28125 16.097656 L 70.59375 15.914062 L 70.28125 15.734375 Z M 70.28125 14.253906 L 70.28125 14.589844 L 70.570312 14.425781 L 70.28125 14.261719 Z M 70.28125 17.210938 L 70.28125 17.601562 L 70.617188 17.40625 Z M 68.894531 11.492188 L 68.894531 12.03125 L 69.351562 11.761719 Z M 68.894531 8.410156 L 68.894531 8.835938 L 69.253906 8.625 Z M 68.894531 13.023438 L 68.894531 13.621094 L 69.402344 13.316406 L 68.894531 13.015625 Z M 68.894531 9.949219 L 68.894531 10.433594 L 69.304688 10.195312 L 68.894531 9.960938 Z M 70.28125 9.8125 L 70.28125 10.066406 L 70.503906 9.941406 L 70.28125 9.820312 Z M 71.523438 17.785156 L 71.523438 18.175781 L 71.859375 17.980469 Z M 71.523438 16.210938 L 71.523438 16.578125 L 71.835938 16.398438 L 71.523438 16.21875 Z M 70.28125 12.769531 L 70.28125 13.082031 L 70.546875 12.925781 Z M 71.523438 19.363281 L 71.523438 19.78125 L 71.886719 19.570312 L 71.523438 19.355469 Z M 71.523438 14.644531 L 71.523438 14.980469 L 71.8125 14.816406 Z M 68.894531 14.570312 L 68.894531 15.226562 L 69.460938 14.898438 Z M 70.28125 11.304688 L 70.28125 11.582031 L 70.519531 11.441406 Z M 70.28125 8.34375 L 70.28125 8.566406 L 70.472656 8.453125 L 70.28125 8.335938 Z M 71.523438 20.945312 L 71.523438 21.398438 L 71.910156 21.175781 L 71.523438 20.953125 Z M 61.101562 7.761719 L 61.101562 8.535156 L 61.757812 8.148438 Z M 62.695312 18.898438 L 62.695312 20.28125 L 63.886719 19.585938 L 62.695312 18.890625 Z M 61.101562 9.246094 L 61.101562 10.121094 L 61.855469 9.679688 L 61.101562 9.238281 Z M 61.101562 10.730469 L 61.101562 11.710938 L 61.949219 11.222656 Z M 61.101562 13.6875 L 61.101562 14.882812 L 62.128906 14.285156 Z M 61.101562 12.203125 L 61.101562 13.292969 L 62.039062 12.746094 Z M 62.695312 20.429688 L 62.695312 21.914062 L 63.96875 21.167969 L 62.695312 20.421875 Z M 61.101562 15.171875 L 61.101562 16.472656 L 62.21875 15.816406 L 61.101562 15.160156 Z M 61.101562 3.324219 L 61.101562 3.773438 L 61.488281 3.542969 L 61.101562 3.3125 Z M 61.101562 4.804688 L 61.101562 5.363281 L 61.578125 5.085938 Z M 61.101562 6.289062 L 61.101562 6.953125 L 61.667969 6.617188 L 61.101562 6.28125 Z M 59.53125 5.148438 L 59.53125 5.789062 L 60.082031 5.46875 Z M 68.902344 19.191406 L 68.902344 20.027344 L 69.617188 19.609375 Z M 59.53125 9.6875 L 59.53125 10.6875 L 60.394531 10.1875 Z M 59.53125 8.179688 L 59.53125 9.066406 L 60.289062 8.625 Z M 68.902344 17.660156 L 68.902344 18.429688 L 69.566406 18.046875 Z M 59.53125 6.664062 L 59.53125 7.425781 L 60.1875 7.042969 Z M 59.53125 2.132812 L 59.53125 2.527344 L 59.867188 2.332031 Z M 59.53125 3.648438 L 59.53125 4.167969 L 59.976562 3.90625 Z M 68.902344 16.128906 L 68.902344 16.847656 L 69.519531 16.488281 Z M 61.101562 16.667969 L 61.101562 18.078125 L 62.308594 17.375 Z M 64.222656 27.261719 L 65.269531 26.65625 L 64.222656 26.050781 Z M 68.894531 32.480469 L 69.402344 32.1875 L 68.894531 31.882812 Z M 68.894531 34.023438 L 69.351562 33.753906 L 68.894531 33.480469 Z M 68.894531 35.5625 L 69.304688 35.324219 L 68.894531 35.078125 Z M 68.894531 29.410156 L 69.507812 29.050781 L 68.894531 28.6875 Z M 68.894531 30.949219 L 69.460938 30.621094 L 68.894531 30.292969 Z M 65.761719 40.207031 L 66.113281 40.003906 L 65.761719 39.796875 Z M 67.339844 24.101562 L 68.167969 23.617188 L 67.339844 23.132812 Z M 68.886719 37.113281 L 69.246094 36.898438 L 68.886719 36.683594 Z M 67.339844 22.421875 L 68.167969 21.9375 L 67.339844 21.453125 Z M 68.886719 27.878906 L 69.550781 27.492188 L 68.886719 27.109375 L 68.886719 27.886719 Z M 70.273438 35.703125 L 70.496094 35.578125 L 70.273438 35.457031 L 70.273438 35.710938 Z M 70.273438 31.269531 L 70.5625 31.105469 L 70.273438 30.933594 Z M 70.273438 32.746094 L 70.535156 32.589844 L 70.273438 32.433594 Z M 68.886719 26.335938 L 69.601562 25.917969 L 68.886719 25.5 Z M 70.273438 28.3125 L 70.609375 28.113281 L 70.273438 27.917969 Z M 70.273438 34.21875 L 70.511719 34.078125 L 70.273438 33.941406 Z M 70.273438 29.785156 L 70.585938 29.605469 L 70.273438 29.425781 Z M 68.886719 24.796875 L 69.648438 24.355469 L 68.886719 23.914062 L 68.886719 24.804688 Z M 68.886719 22.28125 L 68.886719 23.257812 L 69.699219 22.78125 L 69.675781 22.78125 C 69.675781 22.78125 69.699219 22.757812 69.699219 22.757812 Z M 70.273438 37.175781 L 70.464844 37.0625 L 70.273438 36.949219 Z M 67.339844 25.589844 L 68.121094 25.132812 L 67.339844 24.675781 Z M 67.339844 39.054688 L 67.660156 38.863281 L 67.339844 38.675781 Z M 65.761719 29.515625 L 66.582031 29.042969 L 65.761719 28.566406 Z M 65.761719 31.039062 L 66.519531 30.605469 L 65.761719 30.171875 L 65.761719 31.046875 Z M 65.761719 27.992188 L 66.648438 27.476562 L 65.761719 26.960938 Z M 65.761719 32.574219 L 66.445312 32.171875 L 65.761719 31.769531 Z M 65.761719 26.46875 L 66.714844 25.910156 L 65.761719 25.355469 Z M 65.761719 35.621094 L 66.3125 35.300781 L 65.761719 34.980469 L 65.761719 35.628906 Z M 65.761719 38.667969 L 66.179688 38.421875 L 65.761719 38.175781 Z M 65.761719 37.144531 L 66.246094 36.867188 L 65.761719 36.585938 L 65.761719 37.152344 Z M 65.761719 34.097656 L 66.378906 33.734375 L 65.761719 33.375 Z M 65.761719 24.945312 L 66.78125 24.347656 L 65.761719 23.75 Z M 67.339844 31.574219 L 67.914062 31.238281 L 67.339844 30.902344 Z M 67.339844 30.074219 L 67.964844 29.714844 L 67.339844 29.34375 Z M 67.339844 33.0625 L 67.867188 32.761719 L 67.339844 32.457031 L 67.339844 33.070312 Z M 67.339844 27.082031 L 68.070312 26.65625 L 67.339844 26.230469 Z M 65.761719 22.109375 L 65.761719 23.414062 L 66.847656 22.78125 L 66.8125 22.765625 L 66.847656 22.75 L 65.761719 22.117188 Z M 67.339844 28.574219 L 68.011719 28.179688 L 67.339844 27.789062 Z M 67.339844 34.554688 L 67.808594 34.277344 L 67.339844 33.996094 Z M 70.273438 26.820312 L 70.636719 26.609375 L 70.273438 26.394531 Z M 67.339844 37.546875 L 67.710938 37.324219 L 67.339844 37.113281 Z M 67.339844 36.046875 L 67.757812 35.800781 L 67.339844 35.554688 Z M 68.886719 38.617188 L 69.195312 38.4375 L 68.886719 38.257812 L 68.886719 38.628906 Z M 74.1875 24.320312 L 74.523438 24.125 L 74.1875 23.929688 Z M 74.1875 27.058594 L 74.480469 26.886719 L 74.1875 26.714844 Z M 74.1875 25.691406 L 74.5 25.511719 L 74.1875 25.328125 Z M 75.550781 30.140625 L 75.804688 29.992188 L 75.550781 29.84375 Z M 74.1875 22.535156 L 74.1875 22.953125 L 74.539062 22.75 L 74.53125 22.75 C 74.53125 22.75 74.539062 22.742188 74.539062 22.742188 Z M 74.1875 29.792969 L 74.433594 29.648438 L 74.1875 29.5 Z M 74.1875 31.164062 L 74.417969 31.03125 L 74.1875 30.894531 Z M 72.863281 22.191406 L 73.214844 21.988281 L 72.863281 21.78125 Z M 74.1875 32.53125 L 74.390625 32.410156 L 74.1875 32.285156 Z M 75.550781 28.84375 L 75.820312 28.6875 L 75.550781 28.53125 L 75.550781 28.851562 Z M 70.273438 25.320312 L 70.660156 25.101562 L 70.273438 24.878906 L 70.273438 25.328125 Z M 76.875 25.671875 L 77.1875 25.492188 L 76.875 25.3125 Z M 76.875 24.304688 L 77.210938 24.109375 L 76.875 23.914062 Z M 77.226562 22.730469 L 76.875 22.527344 L 76.875 22.945312 L 77.226562 22.742188 L 77.21875 22.742188 C 77.21875 22.742188 77.226562 22.730469 77.226562 22.730469 Z M 76.875 26.976562 L 77.105469 26.835938 L 76.875 26.699219 Z M 75.550781 27.550781 L 75.847656 27.378906 L 75.550781 27.207031 Z M 75.550781 26.261719 L 75.863281 26.082031 L 75.550781 25.902344 L 75.550781 26.273438 Z M 75.550781 24.976562 L 75.886719 24.78125 L 75.550781 24.582031 Z M 75.550781 23.691406 L 75.902344 23.484375 L 75.550781 23.28125 Z M 75.550781 22.175781 L 75.902344 21.96875 L 75.550781 21.765625 Z M 74.1875 28.402344 L 74.457031 28.246094 L 74.1875 28.089844 L 74.1875 28.410156 Z M 71.515625 30.828125 L 71.800781 30.664062 L 71.515625 30.492188 Z M 71.515625 29.253906 L 71.828125 29.074219 L 71.515625 28.894531 Z M 71.515625 27.679688 L 71.851562 27.484375 L 71.515625 27.289062 Z M 71.515625 32.398438 L 71.777344 32.246094 L 71.515625 32.089844 Z M 71.515625 26.101562 L 71.875 25.886719 L 71.515625 25.671875 Z M 70.273438 22.085938 L 70.683594 21.847656 L 70.273438 21.609375 Z M 70.273438 23.820312 L 70.683594 23.585938 L 70.273438 23.347656 Z M 71.515625 24.519531 L 71.902344 24.296875 L 71.515625 24.074219 Z M 72.863281 23.675781 L 73.214844 23.46875 L 72.863281 23.265625 Z M 71.515625 35.539062 L 71.730469 35.414062 L 71.515625 35.292969 L 71.515625 35.546875 Z M 71.515625 33.964844 L 71.753906 33.824219 L 71.515625 33.6875 Z M 72.863281 26.246094 L 73.175781 26.066406 L 72.863281 25.886719 L 72.863281 26.253906 Z M 72.863281 27.535156 L 73.160156 27.363281 L 72.863281 27.1875 Z M 72.863281 28.820312 L 73.132812 28.664062 L 72.863281 28.507812 L 72.863281 28.828125 Z M 72.863281 24.960938 L 73.199219 24.765625 L 72.863281 24.566406 Z M 71.515625 22.46875 L 71.515625 22.953125 L 71.925781 22.714844 L 71.917969 22.714844 C 71.917969 22.714844 71.925781 22.707031 71.925781 22.707031 Z M 72.863281 32.671875 L 73.078125 32.546875 L 72.863281 32.425781 Z M 72.863281 30.097656 L 73.117188 29.949219 L 72.863281 29.804688 Z M 72.863281 33.957031 L 73.050781 33.851562 L 72.863281 33.742188 L 72.863281 33.964844 Z M 72.863281 31.382812 L 73.09375 31.246094 L 72.863281 31.113281 Z M 62.679688 37.300781 L 63.289062 36.949219 L 62.679688 36.59375 Z M 56.40625 34.261719 L 57.515625 33.613281 L 56.40625 32.964844 Z M 56.40625 35.75 L 57.394531 35.167969 L 56.40625 34.597656 Z M 56.40625 32.777344 L 57.640625 32.054688 L 56.40625 31.335938 Z M 57.953125 43.609375 L 58.296875 43.402344 L 57.953125 43.199219 Z M 57.953125 40.96875 L 58.519531 40.644531 L 57.953125 40.316406 Z M 57.953125 42.460938 L 58.414062 42.199219 L 57.953125 41.929688 Z M 56.40625 40.214844 L 57.039062 39.847656 L 56.40625 39.480469 Z M 56.40625 37.242188 L 57.277344 36.734375 L 56.40625 36.226562 Z M 56.40625 41.707031 L 56.917969 41.414062 L 56.40625 41.117188 L 56.40625 41.714844 Z M 56.40625 38.734375 L 57.15625 38.300781 L 56.40625 37.863281 L 56.40625 38.742188 Z M 64.207031 22.601562 L 65.398438 21.90625 L 64.207031 21.214844 Z M 57.953125 32.007812 L 59.160156 31.300781 L 57.953125 30.597656 Z M 59.507812 41.839844 L 59.949219 41.578125 L 59.507812 41.324219 Z M 59.507812 43.347656 L 59.84375 43.148438 L 59.507812 42.953125 Z M 59.507812 40.324219 L 60.058594 40.003906 L 59.507812 39.683594 Z M 57.953125 34.996094 L 58.949219 34.414062 L 57.953125 33.835938 Z M 57.953125 33.5 L 59.054688 32.859375 L 57.953125 32.21875 L 57.953125 33.507812 Z M 56.40625 43.199219 L 56.792969 42.96875 L 56.40625 42.738281 Z M 57.953125 37.980469 L 58.734375 37.527344 L 57.953125 37.078125 L 57.953125 37.988281 Z M 57.953125 39.480469 L 58.628906 39.085938 L 57.953125 38.691406 Z M 51.707031 38.117188 L 52.734375 37.519531 L 51.707031 36.921875 Z M 53.269531 43.28125 L 53.746094 43.003906 L 53.269531 42.722656 Z M 53.269531 41.804688 L 53.894531 41.445312 L 53.269531 41.085938 Z M 53.269531 44.519531 L 53.605469 44.320312 L 53.269531 44.125 Z M 53.269531 40.332031 L 54.03125 39.890625 L 53.269531 39.4375 Z M 53.269531 38.855469 L 54.179688 38.324219 L 53.269531 37.792969 Z M 59.515625 38.816406 L 60.171875 38.4375 L 59.515625 38.0625 L 59.515625 38.824219 Z M 51.707031 39.601562 L 52.59375 39.085938 L 51.707031 38.570312 Z M 56.40625 44.058594 L 56.738281 43.863281 L 56.40625 43.664062 Z M 53.269531 37.382812 L 54.328125 36.765625 L 53.269531 36.144531 Z M 51.707031 36.652344 L 52.875 35.972656 L 51.707031 35.285156 Z M 51.707031 41.070312 L 52.453125 40.632812 L 51.707031 40.199219 Z M 54.835938 36.585938 L 55.855469 35.996094 L 54.835938 35.398438 Z M 54.835938 35.105469 L 55.980469 34.441406 L 54.835938 33.777344 L 54.835938 35.113281 Z M 53.269531 35.90625 L 54.476562 35.203125 L 53.269531 34.496094 Z M 54.835938 33.613281 L 56.105469 32.875 L 54.835938 32.136719 Z M 54.835938 38.078125 L 55.734375 37.554688 L 54.835938 37.03125 Z M 54.835938 42.542969 L 55.363281 42.242188 L 54.835938 41.929688 Z M 54.835938 44.191406 L 55.242188 43.960938 L 54.835938 43.722656 Z M 54.835938 39.570312 L 55.609375 39.117188 L 54.835938 38.667969 Z M 54.835938 41.050781 L 55.488281 40.675781 L 54.835938 40.296875 Z M 57.953125 36.496094 L 58.839844 35.980469 L 57.953125 35.464844 Z M 62.671875 25.042969 L 63.945312 24.296875 L 62.671875 23.550781 Z M 62.671875 26.574219 L 63.863281 25.878906 L 62.671875 25.183594 Z M 64.207031 40.683594 L 64.59375 40.460938 L 64.207031 40.242188 L 64.207031 40.691406 Z M 62.671875 21.921875 L 62.671875 23.519531 L 64.027344 22.722656 C 64.027344 22.722656 64.027344 22.714844 64.027344 22.714844 Z M 62.671875 28.105469 L 63.78125 27.460938 L 62.671875 26.8125 Z M 64.207031 39.183594 L 64.667969 38.921875 L 64.207031 38.652344 Z M 62.671875 34.242188 L 63.445312 33.792969 L 62.671875 33.34375 Z M 62.671875 29.648438 L 63.691406 29.050781 L 62.671875 28.449219 Z M 62.671875 32.710938 L 63.527344 32.210938 L 62.671875 31.710938 Z M 62.671875 31.179688 L 63.609375 30.628906 L 62.671875 30.082031 Z M 64.207031 37.691406 L 64.742188 37.382812 L 64.207031 37.070312 Z M 64.207031 28.714844 L 65.179688 28.148438 L 64.207031 27.582031 Z M 62.671875 35.777344 L 63.363281 35.375 L 62.671875 34.972656 Z M 64.207031 25.714844 L 65.324219 25.066406 L 64.207031 24.421875 L 64.207031 25.722656 Z M 64.207031 24.214844 L 65.398438 23.527344 L 64.207031 22.839844 L 64.207031 24.222656 Z M 64.207031 30.203125 L 65.105469 29.679688 L 64.207031 29.15625 Z M 64.207031 31.703125 L 65.03125 31.21875 L 64.207031 30.746094 Z M 64.207031 36.195312 L 64.808594 35.839844 L 64.207031 35.488281 Z M 64.207031 34.695312 L 64.882812 34.300781 L 64.207031 33.90625 Z M 64.207031 33.195312 L 64.957031 32.761719 L 64.207031 32.328125 L 64.207031 33.203125 Z M 59.507812 31.253906 L 60.683594 30.566406 L 59.507812 29.875 Z M 59.507812 29.746094 L 60.789062 29 L 59.507812 28.253906 Z M 61.078125 42.140625 L 61.460938 41.921875 L 61.078125 41.691406 Z M 61.078125 40.660156 L 61.554688 40.378906 L 61.078125 40.101562 Z M 61.078125 39.175781 L 61.644531 38.839844 L 61.078125 38.503906 Z M 61.078125 37.691406 L 61.734375 37.308594 L 61.078125 36.921875 Z M 59.507812 37.292969 L 60.261719 36.847656 L 59.507812 36.40625 Z M 61.078125 36.210938 L 61.832031 35.777344 L 61.078125 35.332031 Z M 59.507812 35.777344 L 60.371094 35.277344 L 59.507812 34.777344 L 59.507812 35.785156 Z M 59.507812 34.269531 L 60.476562 33.703125 L 59.507812 33.136719 Z M 59.507812 32.761719 L 60.574219 32.136719 L 59.507812 31.515625 L 59.507812 32.769531 Z M 62.671875 40.363281 L 63.105469 40.109375 L 62.671875 39.855469 Z M 51.699219 42.527344 L 52.296875 42.175781 L 51.699219 41.824219 Z M 61.078125 34.726562 L 61.921875 34.234375 L 61.078125 33.742188 Z M 62.671875 41.886719 L 63.023438 41.683594 L 62.671875 41.476562 Z M 62.671875 38.824219 L 63.195312 38.519531 L 62.671875 38.21875 Z M 62.5625 21.90625 L 61.199219 22.699219 L 62.5625 23.496094 L 61.207031 24.289062 L 62.472656 25.027344 L 61.117188 25.820312 L 62.382812 26.558594 L 61.085938 27.320312 L 61.085938 24.273438 L 59.703125 25.074219 L 61.003906 25.828125 L 59.605469 26.648438 L 60.894531 27.402344 L 59.515625 28.207031 L 59.515625 25.09375 L 58.207031 25.855469 L 59.488281 26.597656 L 58.101562 27.410156 L 59.382812 28.15625 L 57.992188 28.96875 L 59.277344 29.714844 L 57.960938 30.484375 L 57.960938 27.386719 L 56.605469 28.171875 L 57.878906 28.917969 L 56.480469 29.730469 L 57.753906 30.476562 L 56.40625 31.261719 L 56.40625 28.207031 L 55.078125 28.984375 L 56.351562 29.730469 L 54.953125 30.539062 L 56.226562 31.285156 L 54.835938 32.097656 L 54.835938 30.53125 L 53.507812 31.3125 L 54.773438 32.046875 L 53.359375 32.867188 L 54.625 33.605469 L 53.269531 34.390625 L 53.269531 31.285156 L 51.894531 32.082031 L 53.160156 32.816406 L 51.753906 33.636719 L 53.019531 34.375 L 51.707031 35.136719 L 51.707031 32.082031 C 51.707031 32.082031 50.359375 32.867188 50.359375 32.867188 L 51.625 33.605469 L 50.277344 34.390625 L 50.277344 10.96875 L 51.625 11.753906 L 50.359375 12.492188 L 51.707031 13.277344 L 51.707031 10.214844 L 53.019531 10.976562 L 51.753906 11.710938 L 53.160156 12.53125 L 51.894531 13.269531 L 53.269531 14.070312 L 53.269531 10.957031 L 54.625 11.746094 L 53.359375 12.484375 L 54.773438 13.300781 L 53.507812 14.039062 L 54.835938 14.816406 L 54.835938 13.253906 L 56.226562 14.0625 L 54.953125 14.808594 L 56.351562 15.621094 L 55.078125 16.367188 L 56.40625 17.144531 L 56.40625 14.082031 L 57.753906 14.867188 L 56.480469 15.613281 L 57.878906 16.421875 L 56.605469 17.167969 L 57.960938 17.957031 L 57.960938 14.859375 L 59.277344 15.628906 L 57.992188 16.375 L 59.382812 17.183594 L 58.101562 17.929688 L 59.488281 18.742188 L 58.207031 19.488281 L 59.515625 20.25 L 59.515625 17.128906 L 60.894531 17.929688 L 59.605469 18.683594 L 61.003906 19.496094 L 59.703125 20.25 L 61.085938 21.050781 L 61.085938 18.003906 L 62.382812 18.757812 L 61.117188 19.503906 L 62.472656 20.300781 L 61.207031 21.035156 L 62.5625 21.832031 Z M 50.5 14.082031 L 51.707031 14.785156 L 51.707031 13.375 Z M 51.707031 28.738281 L 51.707031 27.671875 L 50.792969 28.207031 Z M 50.644531 29.769531 L 51.707031 30.382812 L 51.707031 29.148438 L 50.644531 29.761719 Z M 51.707031 27.089844 L 51.707031 26.199219 L 50.941406 26.640625 L 51.707031 27.082031 Z M 51.707031 25.445312 L 51.707031 24.722656 L 51.089844 25.082031 Z M 51.707031 23.796875 L 51.707031 23.257812 L 51.246094 23.527344 Z M 51.707031 22.152344 L 51.707031 21.609375 L 51.246094 21.878906 Z M 51.707031 20.683594 L 51.707031 19.964844 L 51.089844 20.324219 Z M 51.707031 19.210938 L 51.707031 18.316406 L 50.941406 18.765625 Z M 51.707031 17.734375 L 51.707031 16.667969 L 50.792969 17.203125 Z M 51.707031 16.257812 L 51.707031 15.023438 L 50.644531 15.644531 Z M 51.707031 32.03125 L 51.707031 30.621094 L 50.5 31.328125 Z M 52.042969 14.859375 L 53.269531 15.578125 L 53.269531 14.144531 L 52.042969 14.867188 Z M 53.269531 27.984375 L 53.269531 26.886719 L 52.324219 27.433594 Z M 52.183594 28.992188 L 53.269531 29.621094 L 53.269531 28.351562 L 52.183594 28.984375 Z M 53.269531 26.34375 L 53.269531 25.402344 L 52.460938 25.871094 L 53.269531 26.335938 Z M 53.269531 24.707031 L 53.269531 23.9375 L 52.609375 24.320312 Z M 53.269531 23.066406 L 53.269531 22.332031 L 52.644531 22.699219 Z M 53.269531 21.460938 L 53.269531 20.691406 L 52.609375 21.078125 Z M 53.269531 19.988281 L 53.269531 19.054688 L 52.460938 19.519531 Z M 53.269531 18.511719 L 53.269531 17.40625 L 52.324219 17.957031 L 53.269531 18.503906 Z M 53.269531 17.039062 L 53.269531 15.769531 L 52.183594 16.398438 L 53.269531 17.03125 Z M 53.269531 31.253906 L 53.269531 29.820312 L 52.042969 30.53125 Z M 53.644531 15.628906 L 54.828125 16.316406 L 54.828125 14.933594 L 53.644531 15.621094 Z M 54.828125 27.148438 L 54.828125 26.109375 L 53.933594 26.632812 L 54.828125 27.15625 Z M 53.785156 28.1875 L 54.828125 28.796875 L 54.828125 27.582031 Z M 54.828125 25.5 L 54.828125 24.625 L 54.082031 25.058594 L 54.828125 25.492188 Z M 54.828125 23.855469 L 54.828125 23.167969 L 54.238281 23.511719 Z M 54.828125 22.207031 L 54.828125 21.519531 L 54.238281 21.863281 Z M 54.828125 20.742188 L 54.828125 19.871094 L 54.082031 20.308594 Z M 54.828125 19.265625 L 54.828125 18.226562 L 53.933594 18.75 L 54.828125 19.273438 Z M 54.828125 17.792969 L 54.828125 16.578125 L 53.785156 17.183594 Z M 54.828125 29.058594 L 53.644531 29.746094 L 54.828125 30.433594 L 54.828125 29.050781 Z M 55.191406 17.957031 L 56.398438 18.660156 L 56.398438 17.25 Z M 56.398438 24.871094 L 56.398438 23.75 L 55.4375 24.3125 L 56.398438 24.878906 Z M 55.316406 25.871094 L 56.398438 26.507812 L 56.398438 25.238281 Z M 56.398438 23.242188 L 56.398438 22.140625 L 55.460938 22.691406 Z M 56.398438 21.644531 L 56.398438 20.519531 L 55.4375 21.085938 L 56.398438 21.652344 Z M 56.398438 20.152344 L 56.398438 18.882812 L 55.316406 19.511719 L 56.398438 20.144531 Z M 56.398438 28.132812 L 56.398438 26.722656 L 55.191406 27.425781 Z M 56.710938 18.765625 L 57.945312 19.488281 L 57.945312 18.046875 Z M 57.945312 24.085938 L 57.945312 22.9375 L 56.957031 23.511719 Z M 56.835938 25.058594 L 57.945312 25.707031 L 57.945312 24.402344 L 56.835938 25.050781 Z M 57.945312 22.453125 L 57.945312 21.308594 L 56.957031 21.878906 Z M 57.945312 20.980469 L 57.945312 19.675781 L 56.835938 20.324219 L 57.945312 20.972656 Z M 57.945312 25.902344 L 56.710938 26.625 L 57.945312 27.34375 Z M 58.296875 21.09375 L 59.5 21.789062 L 59.5 20.390625 L 58.296875 21.085938 Z M 58.347656 22.699219 C 58.347656 22.699219 59.507812 23.378906 59.507812 23.378906 L 59.507812 22.011719 L 58.347656 22.691406 C 58.347656 22.691406 58.339844 22.691406 58.339844 22.691406 L 58.347656 22.691406 Z M 59.5 25 L 59.5 23.601562 L 58.296875 24.296875 Z M 61.066406 22.773438 L 59.800781 23.511719 L 61.066406 24.25 Z M 61.066406 21.144531 L 59.800781 21.878906 L 61.066406 22.617188 Z M 61.066406 33.246094 L 62.003906 32.695312 L 61.066406 32.144531 Z M 61.066406 31.761719 L 62.09375 31.164062 L 61.066406 30.566406 Z M 61.066406 30.277344 L 62.1875 29.621094 L 61.066406 28.96875 Z M 61.066406 28.796875 L 62.277344 28.089844 L 61.066406 27.386719 Z M 61.066406 28.796875 " clip-rule="nonzero"></path></clipPath><linearGradient x1="81.830017" gradientTransform="matrix(0.821938, 0, 0, 0.81932, -16.983058, -5.386762)" y1="34.18" x2="114.640007" gradientUnits="userSpaceOnUse" y2="34.18" id="0464d4df29"><stop stop-opacity="1" stop-color="rgb(100%, 73.699951%, 0%)" offset="0"></stop><stop stop-opacity="1" stop-color="rgb(99.95575%, 73.490906%, 0.0869751%)" offset="0.00390625"></stop><stop stop-opacity="1" stop-color="rgb(99.911499%, 73.28186%, 0.175476%)" offset="0.0078125"></stop><stop stop-opacity="1" stop-color="rgb(99.859619%, 73.033142%, 0.279236%)" offset="0.0117188"></stop><stop stop-opacity="1" stop-color="rgb(99.807739%, 72.78595%, 0.382996%)" offset="0.015625"></stop><stop stop-opacity="1" stop-color="rgb(99.754333%, 72.538757%, 0.486755%)" offset="0.0195313"></stop><stop stop-opacity="1" stop-color="rgb(99.702454%, 72.291565%, 0.592041%)" offset="0.0234375"></stop><stop stop-opacity="1" stop-color="rgb(99.649048%, 72.041321%, 0.697327%)" offset="0.0273438"></stop><stop stop-opacity="1" stop-color="rgb(99.597168%, 71.791077%, 0.802612%)" offset="0.03125"></stop><stop stop-opacity="1" stop-color="rgb(99.493408%, 71.179199%, 1.101685%)" offset="0.0351562"></stop><stop stop-opacity="1" stop-color="rgb(99.389648%, 70.567322%, 1.402283%)" offset="0.0390625"></stop><stop stop-opacity="1" stop-color="rgb(99.284363%, 69.953918%, 1.701355%)" offset="0.0429688"></stop><stop stop-opacity="1" stop-color="rgb(99.180603%, 69.342041%, 2.001953%)" offset="0.046875"></stop><stop stop-opacity="1" stop-color="rgb(99.076843%, 68.728638%, 2.301025%)" offset="0.0507813"></stop><stop stop-opacity="1" stop-color="rgb(98.973083%, 68.11676%, 2.601624%)" offset="0.0546875"></stop><stop stop-opacity="1" stop-color="rgb(98.867798%, 67.434692%, 2.937317%)" offset="0.0585938"></stop><stop stop-opacity="1" stop-color="rgb(98.764038%, 66.752625%, 3.274536%)" offset="0.0625"></stop><stop stop-opacity="1" stop-color="rgb(98.658752%, 65.722656%, 3.794861%)" offset="0.0664063"></stop><stop stop-opacity="1" stop-color="rgb(98.554993%, 64.692688%, 4.316711%)" offset="0.0703125"></stop><stop stop-opacity="1" stop-color="rgb(98.451233%, 63.66272%, 4.838562%)" offset="0.0742188"></stop><stop stop-opacity="1" stop-color="rgb(98.347473%, 62.634277%, 5.360413%)" offset="0.078125"></stop><stop stop-opacity="1" stop-color="rgb(98.242188%, 61.604309%, 5.880737%)" offset="0.0820313"></stop><stop stop-opacity="1" stop-color="rgb(98.138428%, 60.575867%, 6.402588%)" offset="0.0859375"></stop><stop stop-opacity="1" stop-color="rgb(98.00415%, 59.394836%, 7.000732%)" offset="0.0898438"></stop><stop stop-opacity="1" stop-color="rgb(97.869873%, 58.215332%, 7.598877%)" offset="0.09375"></stop><stop stop-opacity="1" stop-color="rgb(97.674561%, 56.730652%, 8.354187%)" offset="0.0976563"></stop><stop stop-opacity="1" stop-color="rgb(97.479248%, 55.245972%, 9.111023%)" offset="0.101563"></stop><stop stop-opacity="1" stop-color="rgb(97.283936%, 53.759766%, 9.866333%)" offset="0.105469"></stop><stop stop-opacity="1" stop-color="rgb(97.088623%, 52.275085%, 10.621643%)" offset="0.109375"></stop><stop stop-opacity="1" stop-color="rgb(96.893311%, 50.788879%, 11.376953%)" offset="0.113281"></stop><stop stop-opacity="1" stop-color="rgb(96.697998%, 49.304199%, 12.133789%)" offset="0.117188"></stop><stop stop-opacity="1" stop-color="rgb(96.495056%, 47.619629%, 12.973022%)" offset="0.121094"></stop><stop stop-opacity="1" stop-color="rgb(96.29364%, 45.935059%, 13.812256%)" offset="0.125"></stop><stop stop-opacity="1" stop-color="rgb(96.084595%, 44.046021%, 14.736938%)" offset="0.128906"></stop><stop stop-opacity="1" stop-color="rgb(95.877075%, 42.156982%, 15.661621%)" offset="0.132813"></stop><stop stop-opacity="1" stop-color="rgb(95.66803%, 40.267944%, 16.586304%)" offset="0.136719"></stop><stop stop-opacity="1" stop-color="rgb(95.458984%, 38.378906%, 17.512512%)" offset="0.140625"></stop><stop stop-opacity="1" stop-color="rgb(95.249939%, 36.489868%, 18.437195%)" offset="0.144531"></stop><stop stop-opacity="1" stop-color="rgb(95.042419%, 34.60083%, 19.361877%)" offset="0.148438"></stop><stop stop-opacity="1" stop-color="rgb(94.799805%, 32.479858%, 20.448303%)" offset="0.152344"></stop><stop stop-opacity="1" stop-color="rgb(94.55719%, 30.360413%, 21.536255%)" offset="0.15625"></stop><stop stop-opacity="1" stop-color="rgb(94.296265%, 28.118896%, 22.70813%)" offset="0.160156"></stop><stop stop-opacity="1" stop-color="rgb(94.036865%, 25.878906%, 23.881531%)" offset="0.164063"></stop><stop stop-opacity="1" stop-color="rgb(93.77594%, 23.63739%, 25.053406%)" offset="0.167969"></stop><stop stop-opacity="1" stop-color="rgb(93.515015%, 21.3974%, 26.226807%)" offset="0.171875"></stop><stop stop-opacity="1" stop-color="rgb(93.254089%, 19.155884%, 27.398682%)" offset="0.175781"></stop><stop stop-opacity="1" stop-color="rgb(92.99469%, 16.914368%, 28.572083%)" offset="0.179688"></stop><stop stop-opacity="1" stop-color="rgb(92.642212%, 13.9328%, 30.111694%)" offset="0.183594"></stop><stop stop-opacity="1" stop-color="rgb(92.29126%, 10.951233%, 31.652832%)" offset="0.1875"></stop><stop stop-opacity="1" stop-color="rgb(91.920471%, 7.804871%, 33.274841%)" offset="0.191406"></stop><stop stop-opacity="1" stop-color="rgb(91.549683%, 4.658508%, 34.896851%)" offset="0.195313"></stop><stop stop-opacity="1" stop-color="rgb(91.273499%, 2.328491%, 36.097717%)" offset="0.199219"></stop><stop stop-opacity="1" stop-color="rgb(90.99884%, 0%, 37.298584%)" offset="0.203125"></stop><stop stop-opacity="1" stop-color="rgb(90.99884%, 0%, 37.298584%)" offset="0.21875"></stop><stop stop-opacity="1" stop-color="rgb(90.99884%, 0%, 37.298584%)" offset="0.25"></stop><stop stop-opacity="1" stop-color="rgb(90.99884%, 0%, 37.298584%)" offset="0.5"></stop><stop stop-opacity="1" stop-color="rgb(90.99884%, 0%, 37.298584%)" offset="1"></stop></linearGradient></defs><g clip-path="url(#4d07d3df10)"><g clip-path="url(#14e2234e94)"><path fill="url(#0464d4df29)" d="M 50.277344 0.765625 L 50.277344 44.519531 L 77.242188 44.519531 L 77.242188 0.765625 Z M 50.277344 0.765625 " fill-rule="nonzero"></path></g></g><path fill="#ffffff" d="M 22.058594 17.160156 C 21.351562 15.996094 20.449219 15.039062 19.363281 14.277344 C 18.269531 13.515625 17.070312 12.941406 15.753906 12.574219 C 14.441406 12.195312 13.183594 12.007812 11.980469 12.007812 C 11.234375 12.007812 10.4375 12.082031 9.597656 12.238281 C 8.761719 12.390625 7.929688 12.628906 7.109375 12.941406 C 6.285156 13.261719 5.496094 13.664062 4.75 14.164062 C 4 14.660156 3.335938 15.242188 2.761719 15.933594 C 2.183594 16.613281 1.722656 17.398438 1.378906 18.285156 C 1.035156 19.167969 0.859375 20.167969 0.859375 21.265625 C 0.859375 22.257812 1.027344 23.167969 1.363281 24.003906 C 1.699219 24.839844 2.152344 25.601562 2.71875 26.289062 C 3.285156 26.976562 3.953125 27.589844 4.699219 28.113281 C 5.449219 28.640625 6.238281 29.089844 7.058594 29.441406 C 7.878906 29.804688 8.710938 30.074219 9.566406 30.253906 C 10.414062 30.441406 11.21875 30.53125 11.980469 30.53125 C 13.578125 30.53125 15.054688 30.3125 16.402344 29.859375 C 17.761719 29.417969 18.9375 28.777344 19.9375 27.960938 C 20.941406 27.140625 21.722656 26.15625 22.289062 25.027344 C 22.847656 23.886719 23.136719 22.625 23.136719 21.25 C 23.136719 19.675781 22.78125 18.308594 22.066406 17.144531 Z M 19.140625 23.566406 C 18.738281 24.289062 18.179688 24.917969 17.464844 25.453125 C 16.757812 25.984375 15.9375 26.410156 15 26.722656 C 14.0625 27.035156 13.058594 27.179688 11.980469 27.179688 C 10.90625 27.179688 9.902344 27.027344 8.964844 26.722656 C 8.027344 26.410156 7.207031 25.992188 6.507812 25.453125 C 5.808594 24.917969 5.25 24.289062 4.847656 23.566406 C 4.445312 22.847656 4.238281 22.078125 4.238281 21.265625 C 4.238281 20.453125 4.445312 19.691406 4.847656 18.972656 C 5.257812 18.257812 5.808594 17.636719 6.507812 17.09375 C 7.207031 16.5625 8.027344 16.136719 8.964844 15.824219 C 9.902344 15.515625 10.914062 15.367188 11.980469 15.367188 C 13.050781 15.367188 14.0625 15.523438 15 15.824219 C 15.9375 16.136719 16.757812 16.554688 17.464844 17.09375 C 18.171875 17.636719 18.730469 18.257812 19.140625 18.972656 C 19.550781 19.683594 19.75 20.453125 19.75 21.265625 C 19.75 22.078125 19.542969 22.847656 19.140625 23.566406 Z M 78.640625 22.945312 C 78.289062 22.363281 77.8125 21.871094 77.226562 21.46875 C 76.644531 21.078125 75.96875 20.757812 75.222656 20.535156 C 74.472656 20.308594 73.710938 20.136719 72.929688 20.011719 C 72.148438 19.890625 71.382812 19.816406 70.636719 19.78125 C 69.886719 19.75 69.207031 19.734375 68.605469 19.734375 C 66.617188 19.734375 65.054688 19.578125 63.910156 19.265625 C 62.769531 18.957031 62.203125 18.464844 62.203125 17.785156 C 62.203125 17.539062 62.285156 17.277344 62.457031 16.988281 C 62.628906 16.703125 62.976562 16.441406 63.492188 16.210938 C 64.019531 15.972656 64.75 15.777344 65.695312 15.613281 C 66.640625 15.449219 67.882812 15.367188 69.410156 15.367188 C 70.355469 15.367188 71.261719 15.441406 72.113281 15.585938 C 72.96875 15.734375 73.757812 15.914062 74.472656 16.121094 C 75.1875 16.332031 75.8125 16.554688 76.339844 16.792969 C 76.867188 17.03125 77.285156 17.234375 77.574219 17.414062 C 77.597656 17.429688 77.628906 17.441406 77.648438 17.441406 C 77.71875 17.441406 77.777344 17.382812 77.769531 17.292969 L 77.523438 13.664062 C 77.515625 13.597656 77.472656 13.582031 77.449219 13.5625 C 77.316406 13.5 77.039062 13.382812 76.59375 13.210938 C 76.160156 13.039062 75.582031 12.867188 74.886719 12.6875 C 74.1875 12.507812 73.371094 12.351562 72.453125 12.210938 C 71.53125 12.074219 70.511719 12.007812 69.410156 12.007812 C 68.1875 12.007812 66.945312 12.089844 65.6875 12.261719 C 64.421875 12.433594 63.289062 12.738281 62.277344 13.164062 C 61.265625 13.597656 60.445312 14.1875 59.792969 14.933594 C 59.152344 15.679688 58.832031 16.628906 58.832031 17.785156 C 58.832031 18.011719 58.855469 18.300781 58.90625 18.660156 C 58.957031 19.011719 59.078125 19.390625 59.285156 19.789062 C 59.488281 20.183594 59.792969 20.585938 60.214844 20.972656 C 60.632812 21.363281 61.199219 21.707031 61.921875 22.027344 C 62.644531 22.347656 63.550781 22.601562 64.636719 22.796875 C 65.71875 22.996094 67.042969 23.09375 68.605469 23.09375 C 69.863281 23.09375 70.921875 23.140625 71.800781 23.242188 C 72.683594 23.339844 73.40625 23.46875 73.980469 23.640625 C 74.546875 23.8125 74.96875 24.011719 75.222656 24.222656 C 75.484375 24.445312 75.617188 24.675781 75.617188 24.917969 C 75.617188 25.601562 75.082031 26.148438 74.015625 26.566406 C 72.945312 26.976562 71.472656 27.1875 69.601562 27.1875 C 68.167969 27.1875 66.878906 27.097656 65.738281 26.910156 C 64.59375 26.722656 63.601562 26.507812 62.753906 26.261719 C 61.90625 26.019531 61.214844 25.773438 60.671875 25.519531 C 60.140625 25.265625 59.753906 25.074219 59.523438 24.945312 C 59.5 24.929688 59.472656 24.917969 59.449219 24.917969 C 59.367188 24.917969 59.316406 25 59.324219 25.09375 L 59.6875 28.84375 C 59.6875 28.84375 59.71875 28.925781 59.761719 28.941406 C 59.910156 29.007812 60.230469 29.132812 60.722656 29.296875 C 61.214844 29.46875 61.890625 29.648438 62.726562 29.828125 C 63.566406 30.015625 64.5625 30.179688 65.710938 30.328125 C 66.863281 30.476562 68.152344 30.546875 69.582031 30.546875 C 71.011719 30.546875 72.304688 30.441406 73.347656 30.222656 C 74.390625 30 75.261719 29.722656 75.976562 29.367188 C 76.683594 29.015625 77.253906 28.632812 77.671875 28.214844 C 78.097656 27.796875 78.417969 27.378906 78.640625 26.976562 C 78.863281 26.566406 79.003906 26.191406 79.070312 25.84375 C 79.132812 25.5 79.167969 25.230469 79.167969 25.050781 C 79.167969 24.238281 78.988281 23.542969 78.632812 22.953125 Z M 126.296875 29.886719 L 117.550781 12.492188 C 117.519531 12.425781 117.460938 12.390625 117.378906 12.390625 L 113.714844 12.390625 C 113.648438 12.390625 113.574219 12.425781 113.539062 12.492188 C 111.335938 16.832031 104.820312 29.886719 104.820312 29.886719 C 104.785156 29.949219 104.785156 30.015625 104.820312 30.082031 C 104.851562 30.148438 104.910156 30.179688 104.992188 30.179688 L 108.335938 30.179688 C 108.402344 30.179688 108.460938 30.140625 108.511719 30.058594 L 109.972656 27.132812 C 110.007812 27.066406 110.054688 27.035156 110.121094 27.035156 L 120.972656 27.035156 C 121.054688 27.035156 121.109375 27.066406 121.144531 27.132812 L 122.605469 30.058594 C 122.640625 30.140625 122.695312 30.179688 122.777344 30.179688 L 126.132812 30.179688 C 126.199219 30.179688 126.246094 30.148438 126.289062 30.082031 C 126.328125 30.015625 126.339844 29.949219 126.304688 29.886719 Z M 119.320312 23.609375 C 119.292969 23.648438 119.253906 23.675781 119.210938 23.675781 L 111.878906 23.675781 C 111.78125 23.675781 111.75 23.617188 111.78125 23.503906 L 115.496094 16.144531 C 115.539062 16.070312 115.578125 16.0625 115.621094 16.144531 L 119.3125 23.503906 C 119.3125 23.503906 119.34375 23.566406 119.328125 23.609375 Z M 50.308594 12.390625 L 50.308594 30.179688 L 53.570312 30.179688 L 53.570312 12.390625 Z M 101.433594 12.390625 L 98.449219 12.390625 C 98.351562 12.390625 98.269531 12.472656 98.269531 12.574219 L 98.269531 19.421875 C 98.269531 19.519531 98.1875 19.601562 98.089844 19.601562 L 86.160156 19.601562 C 86.0625 19.601562 85.980469 19.519531 85.980469 19.421875 L 85.980469 12.574219 C 85.980469 12.472656 85.898438 12.390625 85.800781 12.390625 L 82.792969 12.390625 C 82.691406 12.390625 82.609375 12.472656 82.609375 12.574219 L 82.609375 29.992188 C 82.609375 30.089844 82.691406 30.171875 82.792969 30.171875 L 85.800781 30.171875 C 85.898438 30.171875 85.980469 30.089844 85.980469 29.992188 L 85.980469 23.140625 C 85.980469 23.042969 86.0625 22.960938 86.160156 22.960938 L 98.089844 22.960938 C 98.195312 22.960938 98.269531 23.042969 98.269531 23.140625 L 98.269531 29.992188 C 98.269531 30.089844 98.351562 30.171875 98.457031 30.171875 L 101.441406 30.171875 C 101.539062 30.171875 101.621094 30.089844 101.621094 29.992188 L 101.621094 12.574219 C 101.621094 12.472656 101.539062 12.390625 101.441406 12.390625 Z M 46.78125 29.984375 L 40.773438 23.453125 C 40.726562 23.402344 40.734375 23.378906 40.800781 23.378906 C 40.824219 23.378906 40.929688 23.378906 40.929688 23.378906 C 43.972656 23.378906 46.4375 20.921875 46.4375 17.890625 C 46.4375 14.859375 43.972656 12.402344 40.929688 12.402344 L 27.171875 12.402344 C 27.074219 12.402344 26.992188 12.484375 26.992188 12.582031 L 26.992188 30 C 26.992188 30.097656 27.074219 30.179688 27.171875 30.179688 L 30.179688 30.179688 C 30.277344 30.179688 30.359375 30.097656 30.359375 30 L 30.359375 23.566406 C 30.359375 23.46875 30.441406 23.386719 30.542969 23.386719 L 36.34375 23.386719 C 36.34375 23.386719 36.410156 23.402344 36.441406 23.4375 L 42.625 30.128906 C 42.625 30.128906 42.691406 30.179688 42.722656 30.179688 L 46.683594 30.179688 C 46.734375 30.179688 46.765625 30.15625 46.792969 30.105469 C 46.816406 30.058594 46.808594 30.015625 46.773438 29.984375 Z M 30.542969 20.019531 C 30.441406 20.019531 30.359375 19.9375 30.359375 19.839844 L 30.359375 15.941406 C 30.359375 15.84375 30.441406 15.761719 30.542969 15.761719 L 40.929688 15.761719 C 42.113281 15.761719 43.066406 16.710938 43.066406 17.890625 C 43.066406 19.070312 42.105469 20.019531 40.929688 20.019531 Z M 30.542969 20.019531 " fill-opacity="1" fill-rule="nonzero"></path><path fill="#ffffff" d="M 74.113281 39.046875 L 70.109375 39.046875 L 70.109375 36.203125 L 69.433594 36.203125 L 69.433594 42.578125 L 70.109375 42.578125 L 70.109375 39.636719 L 74.113281 39.636719 L 74.113281 42.578125 L 74.777344 42.578125 L 74.777344 36.203125 L 74.113281 36.203125 Z M 74.113281 39.046875 " fill-opacity="1" fill-rule="nonzero"></path><path fill="#ffffff" d="M 80.695312 38.054688 C 80.34375 37.847656 79.949219 37.75 79.496094 37.75 C 79.042969 37.75 78.648438 37.855469 78.296875 38.0625 C 77.941406 38.273438 77.664062 38.5625 77.457031 38.921875 C 77.253906 39.28125 77.152344 39.707031 77.152344 40.175781 C 77.152344 40.644531 77.261719 41.070312 77.472656 41.4375 C 77.6875 41.804688 77.984375 42.09375 78.363281 42.304688 C 78.738281 42.519531 79.175781 42.617188 79.675781 42.617188 C 80.0625 42.617188 80.410156 42.550781 80.730469 42.421875 C 81.050781 42.289062 81.3125 42.09375 81.527344 41.839844 L 81.164062 41.421875 C 80.984375 41.632812 80.761719 41.789062 80.515625 41.894531 C 80.269531 42.003906 79.988281 42.050781 79.703125 42.050781 C 79.332031 42.050781 79.003906 41.976562 78.714844 41.824219 C 78.425781 41.667969 78.199219 41.453125 78.042969 41.175781 C 77.910156 40.945312 77.828125 40.683594 77.8125 40.386719 L 81.839844 40.386719 C 81.839844 40.386719 81.839844 40.316406 81.839844 40.28125 C 81.839844 40.25 81.839844 40.214844 81.839844 40.183594 C 81.839844 39.707031 81.738281 39.28125 81.535156 38.914062 C 81.335938 38.546875 81.058594 38.257812 80.703125 38.0625 Z M 78 39.167969 C 78.148438 38.898438 78.355469 38.683594 78.609375 38.527344 C 78.863281 38.375 79.167969 38.300781 79.496094 38.300781 C 79.824219 38.300781 80.128906 38.375 80.382812 38.527344 C 80.636719 38.683594 80.84375 38.890625 80.992188 39.160156 C 81.113281 39.382812 81.179688 39.625 81.207031 39.890625 L 77.792969 39.890625 C 77.820312 39.617188 77.886719 39.382812 78 39.160156 Z M 78 39.167969 " fill-opacity="1" fill-rule="nonzero"></path><path fill="#ffffff" d="M 85.601562 37.75 C 85.226562 37.75 84.863281 37.808594 84.527344 37.921875 C 84.1875 38.039062 83.894531 38.191406 83.648438 38.398438 L 83.941406 38.882812 C 84.140625 38.710938 84.378906 38.578125 84.65625 38.472656 C 84.9375 38.363281 85.234375 38.316406 85.546875 38.316406 C 85.996094 38.316406 86.335938 38.421875 86.566406 38.644531 C 86.792969 38.863281 86.910156 39.175781 86.910156 39.578125 L 86.910156 39.871094 L 85.390625 39.871094 C 84.929688 39.871094 84.566406 39.9375 84.296875 40.0625 C 84.023438 40.183594 83.828125 40.347656 83.710938 40.550781 C 83.597656 40.757812 83.53125 40.980469 83.53125 41.234375 C 83.53125 41.503906 83.605469 41.75 83.746094 41.953125 C 83.886719 42.167969 84.089844 42.332031 84.355469 42.445312 C 84.617188 42.558594 84.929688 42.625 85.289062 42.625 C 85.75 42.625 86.128906 42.535156 86.425781 42.347656 C 86.648438 42.207031 86.820312 42.035156 86.941406 41.832031 L 86.941406 42.585938 L 87.566406 42.585938 L 87.566406 39.617188 C 87.566406 38.996094 87.394531 38.527344 87.058594 38.226562 C 86.722656 37.921875 86.242188 37.765625 85.621094 37.765625 Z M 86.316406 41.855469 C 86.054688 42.019531 85.734375 42.109375 85.371094 42.109375 C 84.988281 42.109375 84.691406 42.027344 84.476562 41.863281 C 84.261719 41.699219 84.15625 41.476562 84.15625 41.207031 C 84.15625 40.960938 84.246094 40.765625 84.425781 40.601562 C 84.609375 40.4375 84.929688 40.355469 85.390625 40.355469 L 86.894531 40.355469 L 86.894531 41.140625 C 86.769531 41.460938 86.582031 41.699219 86.308594 41.863281 Z M 86.316406 41.855469 " fill-opacity="1" fill-rule="nonzero"></path><path fill="#ffffff" d="M 90.222656 35.816406 L 90.871094 35.816406 L 90.871094 42.566406 L 90.222656 42.566406 Z M 90.222656 35.816406 " fill-opacity="1" fill-rule="nonzero"></path><path fill="#ffffff" d="M 95.195312 42.058594 C 94.921875 42.058594 94.71875 41.984375 94.578125 41.832031 C 94.4375 41.683594 94.363281 41.460938 94.363281 41.183594 L 94.363281 38.324219 L 95.828125 38.324219 L 95.828125 37.78125 L 94.363281 37.78125 L 94.363281 36.726562 L 93.714844 36.726562 L 93.714844 37.78125 L 92.859375 37.78125 L 92.859375 38.324219 L 93.714844 38.324219 L 93.714844 41.214844 C 93.714844 41.660156 93.839844 42.003906 94.078125 42.25 C 94.316406 42.496094 94.667969 42.609375 95.121094 42.609375 C 95.308594 42.609375 95.492188 42.585938 95.671875 42.527344 C 95.851562 42.46875 96.007812 42.386719 96.132812 42.273438 L 95.902344 41.804688 C 95.710938 41.96875 95.472656 42.050781 95.1875 42.050781 Z M 95.195312 42.058594 " fill-opacity="1" fill-rule="nonzero"></path><path fill="#ffffff" d="M 101.695312 37.972656 C 101.402344 37.824219 101.054688 37.75 100.667969 37.75 C 100.207031 37.75 99.804688 37.847656 99.476562 38.046875 C 99.222656 38.191406 99.023438 38.390625 98.878906 38.617188 L 98.878906 35.816406 L 98.226562 35.816406 L 98.226562 42.566406 L 98.878906 42.566406 L 98.878906 40.050781 C 98.878906 39.691406 98.941406 39.378906 99.082031 39.117188 C 99.222656 38.863281 99.410156 38.660156 99.667969 38.527344 C 99.921875 38.398438 100.21875 38.324219 100.554688 38.324219 C 101.015625 38.324219 101.367188 38.453125 101.613281 38.710938 C 101.871094 38.964844 101.992188 39.347656 101.992188 39.847656 L 101.992188 42.558594 L 102.640625 42.558594 L 102.640625 39.78125 C 102.640625 39.324219 102.558594 38.9375 102.386719 38.636719 C 102.222656 38.332031 101.992188 38.101562 101.695312 37.957031 Z M 101.695312 37.972656 " fill-opacity="1" fill-rule="nonzero"></path><path fill="#ffffff" d="M 106.363281 38.546875 C 106.636719 38.390625 106.949219 38.316406 107.285156 38.316406 C 107.574219 38.316406 107.835938 38.375 108.082031 38.488281 C 108.328125 38.601562 108.527344 38.78125 108.691406 39.027344 L 109.175781 38.699219 C 108.988281 38.390625 108.730469 38.152344 108.402344 37.988281 C 108.074219 37.832031 107.703125 37.75 107.300781 37.75 C 106.824219 37.75 106.40625 37.855469 106.027344 38.0625 C 105.648438 38.265625 105.363281 38.554688 105.148438 38.914062 C 104.933594 39.273438 104.828125 39.699219 104.828125 40.175781 C 104.828125 40.652344 104.933594 41.070312 105.148438 41.4375 C 105.363281 41.804688 105.660156 42.09375 106.027344 42.304688 C 106.40625 42.519531 106.824219 42.617188 107.300781 42.617188 C 107.714844 42.617188 108.074219 42.535156 108.402344 42.378906 C 108.730469 42.214844 108.988281 41.984375 109.175781 41.675781 L 108.691406 41.347656 C 108.527344 41.585938 108.320312 41.757812 108.082031 41.871094 C 107.835938 41.984375 107.574219 42.042969 107.285156 42.042969 C 106.949219 42.042969 106.636719 41.96875 106.363281 41.8125 C 106.09375 41.660156 105.871094 41.445312 105.714844 41.167969 C 105.558594 40.886719 105.476562 40.5625 105.476562 40.183594 C 105.476562 39.808594 105.558594 39.480469 105.714844 39.199219 C 105.871094 38.921875 106.09375 38.699219 106.363281 38.554688 Z M 106.363281 38.546875 " fill-opacity="1" fill-rule="nonzero"></path><path fill="#ffffff" d="M 113.039062 37.75 C 112.660156 37.75 112.300781 37.808594 111.960938 37.921875 C 111.625 38.039062 111.328125 38.191406 111.082031 38.398438 L 111.378906 38.882812 C 111.578125 38.710938 111.816406 38.578125 112.09375 38.472656 C 112.375 38.363281 112.667969 38.316406 112.980469 38.316406 C 113.433594 38.316406 113.769531 38.421875 114 38.644531 C 114.230469 38.863281 114.347656 39.175781 114.347656 39.578125 L 114.347656 39.871094 L 112.824219 39.871094 C 112.367188 39.871094 112.003906 39.9375 111.730469 40.0625 C 111.460938 40.183594 111.265625 40.347656 111.148438 40.550781 C 111.035156 40.757812 110.96875 40.980469 110.96875 41.234375 C 110.96875 41.503906 111.042969 41.75 111.183594 41.953125 C 111.320312 42.167969 111.527344 42.332031 111.789062 42.445312 C 112.054688 42.558594 112.367188 42.625 112.726562 42.625 C 113.1875 42.625 113.566406 42.535156 113.859375 42.347656 C 114.082031 42.207031 114.253906 42.035156 114.378906 41.832031 L 114.378906 42.585938 L 115.003906 42.585938 L 115.003906 39.617188 C 115.003906 38.996094 114.832031 38.527344 114.492188 38.226562 C 114.15625 37.921875 113.679688 37.765625 113.054688 37.765625 Z M 113.753906 41.855469 C 113.492188 42.019531 113.171875 42.109375 112.808594 42.109375 C 112.421875 42.109375 112.128906 42.027344 111.914062 41.863281 C 111.699219 41.699219 111.59375 41.476562 111.59375 41.207031 C 111.59375 40.960938 111.683594 40.765625 111.863281 40.601562 C 112.042969 40.4375 112.367188 40.355469 112.824219 40.355469 L 114.328125 40.355469 L 114.328125 41.140625 C 114.207031 41.460938 114.015625 41.699219 113.746094 41.863281 Z M 113.753906 41.855469 " fill-opacity="1" fill-rule="nonzero"></path><path fill="#ffffff" d="M 118.285156 38.726562 L 118.285156 37.792969 L 117.660156 37.792969 L 117.660156 42.566406 L 118.308594 42.566406 L 118.308594 40.125 C 118.308594 39.5625 118.449219 39.125 118.734375 38.824219 C 119.023438 38.519531 119.417969 38.363281 119.917969 38.363281 C 119.945312 38.363281 119.96875 38.363281 119.992188 38.363281 C 120.015625 38.363281 120.042969 38.363281 120.066406 38.363281 L 120.066406 37.734375 C 119.597656 37.734375 119.203125 37.832031 118.890625 38.019531 C 118.621094 38.183594 118.414062 38.421875 118.285156 38.71875 Z M 118.285156 38.726562 " fill-opacity="1" fill-rule="nonzero"></path><path fill="#ffffff" d="M 126 38.90625 C 125.804688 38.535156 125.523438 38.25 125.171875 38.054688 C 124.816406 37.847656 124.421875 37.75 123.972656 37.75 C 123.519531 37.75 123.125 37.855469 122.769531 38.0625 C 122.417969 38.273438 122.136719 38.5625 121.933594 38.921875 C 121.726562 39.28125 121.628906 39.707031 121.628906 40.175781 C 121.628906 40.644531 121.734375 41.070312 121.949219 41.4375 C 122.164062 41.804688 122.457031 42.09375 122.835938 42.304688 C 123.214844 42.519531 123.652344 42.617188 124.152344 42.617188 C 124.539062 42.617188 124.882812 42.550781 125.203125 42.421875 C 125.523438 42.289062 125.789062 42.09375 126 41.839844 L 125.640625 41.421875 C 125.457031 41.632812 125.238281 41.789062 124.992188 41.894531 C 124.742188 42.003906 124.464844 42.050781 124.175781 42.050781 C 123.808594 42.050781 123.476562 41.976562 123.191406 41.824219 C 122.902344 41.667969 122.671875 41.453125 122.515625 41.175781 C 122.382812 40.945312 122.300781 40.683594 122.285156 40.386719 L 126.3125 40.386719 C 126.3125 40.386719 126.3125 40.316406 126.3125 40.28125 C 126.3125 40.25 126.3125 40.214844 126.3125 40.183594 C 126.3125 39.707031 126.214844 39.28125 126.007812 38.914062 Z M 122.476562 39.167969 C 122.625 38.898438 122.828125 38.683594 123.082031 38.527344 C 123.339844 38.375 123.640625 38.300781 123.972656 38.300781 C 124.300781 38.300781 124.605469 38.375 124.859375 38.527344 C 125.113281 38.683594 125.320312 38.890625 125.46875 39.160156 C 125.589844 39.382812 125.65625 39.625 125.679688 39.890625 L 122.269531 39.890625 C 122.292969 39.617188 122.359375 39.382812 122.476562 39.160156 Z M 122.476562 39.167969 " fill-opacity="1" fill-rule="nonzero"></path></svg> 